PathFileType	4	(X/Y/Z)	Patient4_TMGait_0pt6_02_right_41.trc.trc
DataRate	CameraRate	NumFrames	NumMarkers	Units	OrigDataRate	OrigDataStartFrame	OrigNumFrames
79.545454545455	79.545454545455	4	33	mm	79.545454545455	36	       141
Frame#	Time	Sacral			L.Shoulder			Chest			R.Shoulder			Neck			R.ASIS			L.ASIS			R.Thigh.Superior			R.Thigh.Lateral			R.Thigh.Inferior			R.Patella			L.Thigh.Superior			L.Thigh.Lateral			L.Thigh.Inferior			L.Patella			L.Shank.Superior			L.Shank.Lateral			L.Shank.Inferior			R.Shank.Superior			R.Shank.Lateral			R.Shank.Inferior			R.Heel			R.Midfoot.Superior			R.Midfoot.Lateral			R.Toe			L.Heel			L.Midfoot.Lateral			L.Midfoot.Superior			L.Toe			L.Elbow			L.Wrist			R.Elbow			R.Wrist			
		X1	Y1	Z1	X2	Y2	Z2	X3	Y3	Z3	X4	Y4	Z4	X5	Y5	Z5	X6	Y6	Z6	X7	Y7	Z7	X8	Y8	Z8	X9	Y9	Z9	X10	Y10	Z10	X11	Y11	Z11	X12	Y12	Z12	X13	Y13	Z13	X14	Y14	Z14	X15	Y15	Z15	X16	Y16	Z16	X17	Y17	Z17	X18	Y18	Z18	X19	Y19	Z19	X20	Y20	Z20	X21	Y21	Z21	X22	Y22	Z22	X23	Y23	Z23	X24	Y24	Z24	X25	Y25	Z25	X26	Y26	Z26	X27	Y27	Z27	X28	Y28	Z28	X29	Y29	Z29	X30	Y30	Z30	X31	Y31	Z31	X32	Y32	Z32	X33	Y33	Z33	

36	49.890000000000	852.130060481175	1002.049176558769	540.740140894513	1042.000623299280	1430.218989959571	354.279681834591	1142.715519113626	1355.827805849043	513.767505315529	1061.098775700927	1435.677429801071	685.278265694269	1045.775274993091	1488.331517148370	504.013949807387	1083.786869786878	935.985637557268	650.815619209948	1057.574935549967	959.408933208115	376.957971110273	1148.268344421054	751.108206910535	614.576569919986	1086.944815759041	633.676897465447	681.045580240596	1167.252484458753	590.905119418682	597.175625115024	1182.301760655422	500.717466269810	605.337494332186	1073.766436916496	732.062290976492	389.193742171047	961.721856129091	634.017388191155	328.031001087463	1037.153401313113	536.675632204458	376.161098036523	1021.255753260811	455.902227835925	373.238734484370	956.148749370866	401.882617292509	368.595922864428	818.156298670886	349.330544477693	324.016672582934	815.620038811651	218.783544288996	378.343234110763	1157.345852292961	410.473766336598	616.644160270743	1094.927666378594	304.722364750518	684.361040226584	1139.146460376110	210.391441894408	622.091232937863	1013.057190655777	43.183475611674	601.802183952435	1183.935885159711	98.675119803101	629.669762280927	1098.922966991116	37.529974308198	673.356129365174	1306.199678694749	47.716549907189	654.074213900400	629.377410782300	132.960013200712	416.372768551233	694.106071181557	87.280349687368	343.222758886246	795.443647714682	111.386491316752	364.411082770714	886.686436686387	34.067617761873	354.127049576935	1014.214040325648	1091.106634031849	211.636766834421	1264.598139839145	1044.008178129273	219.326842322729	942.908890241202	1117.853284827198	819.447735754203	970.924145910005	857.587283976534	797.314334802704	
37	49.902571428571	853.066606688086	1003.406531727084	544.711329142895	1041.373646681705	1432.005829994002	357.964454426894	1143.359636401051	1357.282004325374	516.456183343076	1062.950009575342	1436.582867769671	688.752710415472	1046.009906655100	1489.669024886409	507.906233766346	1085.038856959459	937.140473922632	653.235128834019	1058.376988248939	960.768412666180	379.430500777821	1147.062731409437	750.118366429233	617.921198207974	1083.660188385300	633.851402494979	683.744546178370	1163.337576289526	590.096470867421	599.767579788992	1177.023251050828	500.014552036174	607.557532229783	1078.616610680735	734.325856724340	391.116463699416	969.965797155561	633.889449135142	329.431776022551	1048.451441912547	537.797674526205	376.957836956366	1033.422340399066	455.752307988136	372.887327642372	966.098804906489	402.268602807866	368.662811947886	826.123078911331	354.671810224265	324.516289501534	819.635631364579	224.045997540335	377.982938910588	1151.724479005026	410.027143502468	618.545505512098	1088.791450992444	304.303224969244	685.610862443307	1132.535708844400	210.067126325824	622.963203481095	1005.703199669338	43.171873087425	601.939749170496	1176.771925506924	98.461022153506	630.111680698338	1091.556293328329	37.464142390800	673.495023002713	1298.912324249377	47.288953014503	654.221259967766	630.736269701473	147.863889925396	416.261361536118	692.320425242421	97.851017803514	343.221338915699	794.997377222817	115.611730620636	363.938110289973	879.975365522347	32.715448976732	354.046257881239	1009.534064210374	1092.144909359623	217.251621089405	1257.406274735606	1030.242241513631	223.123840648328	951.664233969867	1116.547114202552	824.928482580015	993.729919594324	858.777003476707	798.042811414833	
38	49.915142857143	853.820144491466	1004.632387234597	548.582585620389	1040.558996838659	1433.618260585965	361.575147499965	1143.908281317609	1358.495576539147	518.987022915857	1064.860985925872	1437.256161950112	692.147674202203	1046.126954326732	1490.835235320065	511.743592917119	1086.072734982831	938.102257139030	655.504249265838	1058.830878107655	961.845727410583	381.789571149863	1145.580887236858	749.114138455603	621.328087276901	1080.084575571733	634.016539055797	686.497582713782	1159.206660467915	589.287574735672	602.516822755899	1171.481272730287	499.341613874941	610.011017469114	1083.624234476130	736.802256949462	393.224970759472	978.867982196864	633.891207479950	330.704975458022	1060.273501014238	539.286535506271	378.036302404895	1046.196822364131	455.995705199932	372.949663381241	976.873900705620	402.891272698246	369.017262307986	835.197171638008	360.203922099277	325.053649519869	824.595243068631	229.782443304043	377.989334856243	1145.905996601533	409.597283379878	620.600454957870	1082.431507010362	303.870832061659	686.920901947151	1125.843669449846	209.765745105817	623.953002758292	998.300283954787	43.181684519626	602.090016187308	1169.526143848127	98.263977649121	630.506383264457	1084.139716315189	37.392162069475	673.649770021991	1291.588235342067	46.746785484223	654.385491318602	633.539104995549	163.487535940597	416.532924049312	691.724343722418	109.491073824490	343.460218417231	795.438974704660	120.772788395794	363.750176956591	873.881905412374	31.423043177615	353.805538969882	1005.017090158040	1093.033081387164	222.754345286381	1249.365729214479	1015.756292721502	227.045087270096	960.809368718434	1115.190733456759	830.414989245175	1017.200271505471	860.878941822962	798.628735252066	
39	49.927714285714	854.345098545909	1005.715992667126	552.305171292967	1039.578451211032	1435.049907821403	365.082985100608	1144.335569483039	1359.447875131010	521.358093278277	1066.782730416983	1437.696305660084	695.437948490299	1046.163787219128	1491.832463732025	515.484079602122	1086.862388810500	938.906527495786	657.620862829327	1058.869686117524	962.648783596820	384.044110400198	1143.862272719475	748.174154250684	624.702502238346	1076.317246328942	634.203059142037	689.238748205792	1154.952457781104	588.521255264223	605.348993296573	1165.782662113574	498.725938406169	612.618704121740	1088.677275405821	739.546697134532	395.527479926033	988.271478788704	634.137326650314	331.866995835698	1072.433815073172	541.238985217845	379.379206217072	1059.424635903447	456.726430461298	373.386778814307	988.320147307540	403.830152494388	369.637535313839	845.210303754182	365.901305127475	325.687070049169	830.467601007107	235.933054218931	378.390751591534	1139.980707949729	409.207793519070	622.749015333139	1075.925037154034	303.471311324876	688.273870639911	1119.107968123641	209.506083947985	625.032113332135	990.851576521289	43.224234206188	602.259376520969	1162.223568053438	98.092148940678	630.872488496842	1076.677821533785	37.330172983510	673.821851845827	1284.226928605077	46.127086665013	654.571151400959	637.799642327569	179.408072347039	417.296271095341	692.440142857977	121.911916486581	344.009050314058	796.885023305848	126.828383670682	363.858016529401	868.710516445482	30.411637123153	353.379470226762	1000.664866031303	1093.741368637227	228.133934138487	1240.383973893854	1000.729538817555	231.098615183636	970.416805362821	1113.731649281557	835.804568185696	1041.200229646689	863.882997281537	799.017589951838	
